<svg height='100px' width='100px'  fill="#000000" xmlns="http://www.w3.org/2000/svg" xmlns:xlink="http://www.w3.org/1999/xlink" version="1.1" x="0px" y="0px" viewBox="0 0 100 100" style="enable-background:new 0 0 100 100;" xml:space="preserve"><style type="text/css">
	.st0{fill:none;stroke:#000000;stroke-width:2;stroke-linecap:round;stroke-linejoin:round;stroke-miterlimit:10;}
</style><path d="M89.125,10.001c-2.029,0-3.092,1.02-3.946,1.838c-0.775,0.744-1.337,1.282-2.562,1.282s-1.785-0.537-2.561-1.281  c-0.854-0.819-1.917-1.839-3.946-1.839c-2.028,0-3.091,1.02-3.944,1.839c-0.775,0.744-1.335,1.281-2.559,1.281  c-1.222,0-1.782-0.537-2.557-1.281c-0.853-0.819-1.914-1.839-3.941-1.839s-3.089,1.02-3.942,1.839  c-0.775,0.744-1.335,1.281-2.559,1.281c-1.222,0-1.781-0.537-2.557-1.281c-0.853-0.819-1.915-1.839-3.942-1.839  c-2.026,0-3.089,1.02-3.941,1.839c-0.775,0.744-1.335,1.281-2.558,1.281c-1.222,0-1.781-0.537-2.557-1.281  c-0.853-0.819-1.915-1.839-3.942-1.839c-2.026,0-3.088,1.02-3.94,1.839c-0.774,0.744-1.334,1.281-2.556,1.281  c-1.221,0-1.78-0.537-2.555-1.281c-0.852-0.819-1.913-1.839-3.938-1.839c-2.027,0-3.09,1.02-3.942,1.839  c-0.775,0.744-1.335,1.281-2.557,1.281s-1.782-0.537-2.557-1.281c-0.853-0.819-1.914-1.839-3.941-1.839c-0.553,0-1,0.447-1,1  s0.447,1,1,1c1.222,0,1.782,0.537,2.557,1.281c0.853,0.819,1.914,1.839,3.941,1.839c2.026,0,3.089-1.02,3.941-1.839  c0.775-0.744,1.335-1.281,2.558-1.281c1.221,0,1.779,0.537,2.553,1.281c0.853,0.819,1.914,1.839,3.94,1.839s3.088-1.02,3.94-1.839  c0.774-0.744,1.334-1.281,2.556-1.281c1.223,0,1.782,0.537,2.558,1.281c0.853,0.819,1.915,1.839,3.941,1.839  c2.027,0,3.09-1.02,3.942-1.839c0.775-0.744,1.335-1.281,2.557-1.281c1.223,0,1.782,0.537,2.558,1.281  c0.853,0.819,1.915,1.839,3.941,1.839c2.028,0,3.09-1.02,3.943-1.839c0.775-0.744,1.335-1.281,2.558-1.281  c1.222,0,1.782,0.537,2.557,1.281c0.853,0.819,1.914,1.839,3.941,1.839s3.09-1.02,3.943-1.838c0.775-0.744,1.336-1.282,2.56-1.282  c1.225,0,1.786,0.538,2.562,1.282c0.854,0.818,1.917,1.838,3.945,1.838c2.029,0,3.092-1.02,3.946-1.838  c0.775-0.744,1.337-1.282,2.562-1.282c0.553,0,1-0.447,1-1S89.678,10.001,89.125,10.001z"></path><path d="M89.125,17.491c-2.029,0-3.092,1.02-3.946,1.838c-0.775,0.744-1.337,1.282-2.562,1.282s-1.785-0.537-2.561-1.281  c-0.854-0.819-1.917-1.839-3.946-1.839c-2.028,0-3.091,1.02-3.944,1.839c-0.775,0.744-1.335,1.281-2.559,1.281  c-1.222,0-1.782-0.537-2.557-1.281c-0.853-0.819-1.914-1.839-3.941-1.839s-3.089,1.02-3.942,1.839  c-0.775,0.744-1.335,1.281-2.559,1.281c-1.222,0-1.781-0.537-2.557-1.281c-0.853-0.819-1.915-1.839-3.942-1.839  c-2.026,0-3.089,1.02-3.941,1.839c-0.775,0.744-1.335,1.281-2.558,1.281c-1.222,0-1.781-0.537-2.557-1.281  c-0.853-0.819-1.915-1.839-3.942-1.839c-2.026,0-3.088,1.02-3.94,1.839c-0.774,0.744-1.334,1.281-2.556,1.281  c-1.221,0-1.78-0.537-2.555-1.281c-0.852-0.819-1.913-1.839-3.938-1.839c-2.027,0-3.09,1.02-3.942,1.839  c-0.775,0.744-1.335,1.281-2.557,1.281s-1.782-0.537-2.557-1.281c-0.853-0.819-1.914-1.839-3.941-1.839c-0.553,0-1,0.447-1,1  s0.447,1,1,1c1.222,0,1.782,0.537,2.557,1.281c0.853,0.819,1.914,1.839,3.941,1.839c2.026,0,3.089-1.02,3.941-1.839  c0.775-0.744,1.335-1.281,2.558-1.281c1.221,0,1.779,0.537,2.553,1.281c0.853,0.819,1.914,1.839,3.94,1.839s3.088-1.02,3.94-1.839  c0.774-0.744,1.334-1.281,2.556-1.281c1.223,0,1.782,0.537,2.558,1.281c0.853,0.819,1.915,1.839,3.941,1.839  c2.027,0,3.09-1.02,3.942-1.839c0.775-0.744,1.335-1.281,2.557-1.281c1.223,0,1.782,0.537,2.558,1.281  c0.853,0.819,1.915,1.839,3.941,1.839c2.028,0,3.09-1.02,3.943-1.839c0.775-0.744,1.335-1.281,2.558-1.281  c1.222,0,1.782,0.537,2.557,1.281c0.853,0.819,1.914,1.839,3.941,1.839s3.09-1.02,3.943-1.838c0.775-0.744,1.336-1.282,2.56-1.282  c1.225,0,1.786,0.538,2.562,1.282c0.854,0.818,1.917,1.838,3.945,1.838c2.029,0,3.092-1.02,3.946-1.838  c0.775-0.744,1.337-1.282,2.562-1.282c0.553,0,1-0.447,1-1S89.678,17.491,89.125,17.491z"></path><path d="M89.125,24.981c-2.029,0-3.092,1.02-3.946,1.838c-0.775,0.744-1.337,1.282-2.562,1.282s-1.785-0.537-2.561-1.281  c-0.854-0.819-1.917-1.839-3.946-1.839c-2.028,0-3.091,1.02-3.944,1.839c-0.775,0.744-1.335,1.281-2.559,1.281  c-1.222,0-1.782-0.537-2.557-1.281c-0.853-0.819-1.914-1.839-3.941-1.839s-3.089,1.02-3.942,1.839  c-0.775,0.744-1.335,1.281-2.559,1.281c-1.222,0-1.781-0.537-2.557-1.281c-0.853-0.819-1.915-1.839-3.942-1.839  c-2.026,0-3.089,1.02-3.941,1.839c-0.775,0.744-1.335,1.281-2.558,1.281c-1.222,0-1.781-0.537-2.557-1.281  c-0.853-0.819-1.915-1.839-3.942-1.839c-2.026,0-3.088,1.02-3.94,1.839c-0.774,0.744-1.334,1.281-2.556,1.281  c-1.221,0-1.78-0.537-2.555-1.281c-0.852-0.819-1.913-1.839-3.938-1.839c-2.027,0-3.09,1.02-3.942,1.839  c-0.775,0.744-1.335,1.281-2.557,1.281s-1.782-0.537-2.557-1.281c-0.853-0.819-1.914-1.839-3.941-1.839c-0.553,0-1,0.447-1,1  s0.447,1,1,1c1.222,0,1.782,0.537,2.557,1.281c0.853,0.819,1.914,1.839,3.941,1.839c2.026,0,3.089-1.02,3.941-1.839  c0.775-0.744,1.335-1.281,2.558-1.281c1.221,0,1.779,0.537,2.553,1.281c0.853,0.819,1.914,1.839,3.94,1.839s3.088-1.02,3.94-1.839  c0.774-0.744,1.334-1.281,2.556-1.281c1.223,0,1.782,0.537,2.558,1.281c0.853,0.819,1.915,1.839,3.941,1.839  c2.027,0,3.09-1.02,3.942-1.839c0.775-0.744,1.335-1.281,2.557-1.281c1.223,0,1.782,0.537,2.558,1.281  c0.853,0.819,1.915,1.839,3.941,1.839c2.028,0,3.09-1.02,3.943-1.839c0.775-0.744,1.335-1.281,2.558-1.281  c1.222,0,1.782,0.537,2.557,1.281c0.853,0.819,1.914,1.839,3.941,1.839s3.09-1.02,3.943-1.838c0.775-0.744,1.336-1.282,2.56-1.282  c1.225,0,1.786,0.538,2.562,1.282c0.854,0.818,1.917,1.838,3.945,1.838c2.029,0,3.092-1.02,3.946-1.838  c0.775-0.744,1.337-1.282,2.562-1.282c0.553,0,1-0.447,1-1S89.678,24.981,89.125,24.981z"></path><path d="M89.125,32.473c-2.029,0-3.092,1.02-3.946,1.838c-0.775,0.744-1.337,1.282-2.562,1.282s-1.785-0.537-2.561-1.281  c-0.854-0.819-1.917-1.839-3.946-1.839c-2.028,0-3.091,1.02-3.944,1.839c-0.775,0.744-1.335,1.281-2.559,1.281  c-1.222,0-1.782-0.537-2.557-1.281c-0.853-0.819-1.914-1.839-3.941-1.839s-3.089,1.02-3.942,1.839  c-0.775,0.744-1.335,1.281-2.559,1.281c-1.222,0-1.781-0.537-2.557-1.281c-0.853-0.819-1.915-1.839-3.942-1.839  c-2.026,0-3.089,1.02-3.941,1.839c-0.775,0.744-1.335,1.281-2.558,1.281c-1.222,0-1.781-0.537-2.557-1.281  c-0.853-0.819-1.915-1.839-3.942-1.839c-2.026,0-3.088,1.02-3.94,1.839c-0.774,0.744-1.334,1.281-2.556,1.281  c-1.221,0-1.78-0.537-2.555-1.281c-0.852-0.819-1.913-1.839-3.938-1.839c-2.027,0-3.09,1.02-3.942,1.839  c-0.775,0.744-1.335,1.281-2.557,1.281s-1.782-0.537-2.557-1.281c-0.853-0.819-1.914-1.839-3.941-1.839c-0.553,0-1,0.447-1,1  s0.447,1,1,1c1.222,0,1.782,0.537,2.557,1.281c0.853,0.819,1.914,1.839,3.941,1.839c2.026,0,3.089-1.02,3.941-1.839  c0.775-0.744,1.335-1.281,2.558-1.281c1.221,0,1.779,0.537,2.553,1.281c0.853,0.819,1.914,1.839,3.94,1.839s3.088-1.02,3.94-1.839  c0.774-0.744,1.334-1.281,2.556-1.281c1.223,0,1.782,0.537,2.558,1.281c0.853,0.819,1.915,1.839,3.941,1.839  c2.027,0,3.09-1.02,3.942-1.839c0.775-0.744,1.335-1.281,2.557-1.281c1.223,0,1.782,0.537,2.558,1.281  c0.853,0.819,1.915,1.839,3.941,1.839c2.028,0,3.09-1.02,3.943-1.839c0.775-0.744,1.335-1.281,2.558-1.281  c1.222,0,1.782,0.537,2.557,1.281c0.853,0.819,1.914,1.839,3.941,1.839s3.09-1.02,3.943-1.838c0.775-0.744,1.336-1.282,2.56-1.282  c1.225,0,1.786,0.538,2.562,1.282c0.854,0.818,1.917,1.838,3.945,1.838c2.029,0,3.092-1.02,3.946-1.838  c0.775-0.744,1.337-1.282,2.562-1.282c0.553,0,1-0.447,1-1S89.678,32.473,89.125,32.473z"></path><path d="M89.125,39.963c-2.029,0-3.092,1.02-3.946,1.838c-0.775,0.744-1.337,1.282-2.562,1.282s-1.785-0.537-2.561-1.281  c-0.854-0.819-1.917-1.839-3.946-1.839c-2.028,0-3.091,1.02-3.944,1.839c-0.775,0.744-1.335,1.281-2.559,1.281  c-1.222,0-1.782-0.537-2.557-1.281c-0.853-0.819-1.914-1.839-3.941-1.839s-3.089,1.02-3.942,1.839  c-0.775,0.744-1.335,1.281-2.559,1.281c-1.222,0-1.781-0.537-2.557-1.281c-0.853-0.819-1.915-1.839-3.942-1.839  c-2.026,0-3.089,1.02-3.941,1.839c-0.775,0.744-1.335,1.281-2.558,1.281c-1.222,0-1.781-0.537-2.557-1.281  c-0.853-0.819-1.915-1.839-3.942-1.839c-2.026,0-3.088,1.02-3.94,1.839c-0.774,0.744-1.334,1.281-2.556,1.281  c-1.221,0-1.78-0.537-2.555-1.281c-0.852-0.819-1.913-1.839-3.938-1.839c-2.027,0-3.09,1.02-3.942,1.839  c-0.775,0.744-1.335,1.281-2.557,1.281s-1.782-0.537-2.557-1.281c-0.853-0.819-1.914-1.839-3.941-1.839c-0.553,0-1,0.447-1,1  s0.447,1,1,1c1.222,0,1.782,0.537,2.557,1.281c0.853,0.819,1.914,1.839,3.941,1.839c2.026,0,3.089-1.02,3.941-1.839  c0.775-0.744,1.335-1.281,2.558-1.281c1.221,0,1.779,0.537,2.553,1.281c0.853,0.819,1.914,1.839,3.94,1.839s3.088-1.02,3.94-1.839  c0.774-0.744,1.334-1.281,2.556-1.281c1.223,0,1.782,0.537,2.558,1.281c0.853,0.819,1.915,1.839,3.941,1.839  c2.027,0,3.09-1.02,3.942-1.839c0.775-0.744,1.335-1.281,2.557-1.281c1.223,0,1.782,0.537,2.558,1.281  c0.853,0.819,1.915,1.839,3.941,1.839c2.028,0,3.09-1.02,3.943-1.839c0.775-0.744,1.335-1.281,2.558-1.281  c1.222,0,1.782,0.537,2.557,1.281c0.853,0.819,1.914,1.839,3.941,1.839s3.09-1.02,3.943-1.838c0.775-0.744,1.336-1.282,2.56-1.282  c1.225,0,1.786,0.538,2.562,1.282c0.854,0.818,1.917,1.838,3.945,1.838c2.029,0,3.092-1.02,3.946-1.838  c0.775-0.744,1.337-1.282,2.562-1.282c0.553,0,1-0.447,1-1S89.678,39.963,89.125,39.963z"></path><path d="M89.125,47.454c-2.029,0-3.092,1.019-3.946,1.838c-0.775,0.744-1.337,1.281-2.562,1.281s-1.785-0.537-2.561-1.281  c-0.854-0.818-1.917-1.838-3.946-1.838c-2.028,0-3.091,1.02-3.944,1.838c-0.775,0.744-1.335,1.281-2.559,1.281  c-1.223,0-1.782-0.537-2.557-1.281c-0.853-0.818-1.915-1.838-3.941-1.838c-2.027,0-3.089,1.02-3.942,1.838  c-0.775,0.744-1.335,1.281-2.559,1.281c-1.222,0-1.782-0.537-2.557-1.281c-0.854-0.818-1.915-1.838-3.942-1.838  c-2.026,0-3.088,1.02-3.941,1.838c-0.775,0.744-1.335,1.281-2.558,1.281c-1.222,0-1.782-0.537-2.557-1.281  c-0.854-0.818-1.915-1.838-3.942-1.838c-2.026,0-3.088,1.02-3.94,1.838c-0.774,0.744-1.334,1.281-2.556,1.281  c-1.221,0-1.78-0.537-2.555-1.281c-0.853-0.818-1.913-1.838-3.938-1.838c-2.027,0-3.089,1.02-3.942,1.838  c-0.774,0.744-1.335,1.281-2.557,1.281c-1.223,0-1.782-0.537-2.557-1.281c-0.853-0.818-1.915-1.838-3.941-1.838  c-0.553,0-1,0.447-1,1s0.447,1,1,1c1.223,0,1.782,0.537,2.557,1.281c0.853,0.818,1.915,1.838,3.941,1.838s3.088-1.02,3.941-1.838  c0.775-0.744,1.335-1.281,2.558-1.281c1.221,0,1.779,0.537,2.553,1.28c0.854,0.819,1.914,1.839,3.94,1.839s3.088-1.02,3.94-1.838  c0.774-0.744,1.334-1.281,2.556-1.281c1.223,0,1.782,0.537,2.558,1.281c0.854,0.818,1.915,1.838,3.941,1.838  c2.027,0,3.089-1.02,3.942-1.838c0.774-0.744,1.335-1.281,2.557-1.281c1.223,0,1.782,0.537,2.558,1.281  c0.854,0.818,1.915,1.838,3.941,1.838c2.027,0,3.09-1.02,3.943-1.838c0.775-0.744,1.335-1.281,2.558-1.281s1.782,0.537,2.557,1.281  c0.853,0.818,1.915,1.838,3.941,1.838c2.027,0,3.09-1.019,3.943-1.838c0.775-0.744,1.336-1.281,2.56-1.281  c1.226,0,1.786,0.537,2.562,1.281c0.854,0.819,1.917,1.838,3.945,1.838c2.029,0,3.092-1.019,3.946-1.838  c0.775-0.744,1.337-1.281,2.562-1.281c0.553,0,1-0.447,1-1S89.678,47.454,89.125,47.454z"></path><path d="M89.125,54.944c-2.029,0-3.092,1.02-3.946,1.838c-0.775,0.744-1.337,1.282-2.562,1.282s-1.785-0.537-2.561-1.281  c-0.854-0.819-1.917-1.839-3.946-1.839c-2.028,0-3.091,1.02-3.944,1.839c-0.775,0.744-1.335,1.281-2.559,1.281  c-1.222,0-1.782-0.537-2.557-1.281c-0.853-0.819-1.914-1.839-3.941-1.839s-3.089,1.02-3.942,1.839  c-0.775,0.744-1.335,1.281-2.559,1.281c-1.222,0-1.781-0.537-2.557-1.281c-0.853-0.819-1.915-1.839-3.942-1.839  c-2.026,0-3.089,1.02-3.941,1.839c-0.775,0.744-1.335,1.281-2.558,1.281c-1.222,0-1.781-0.537-2.557-1.281  c-0.853-0.819-1.915-1.839-3.942-1.839c-2.026,0-3.088,1.02-3.94,1.839c-0.774,0.744-1.334,1.281-2.556,1.281  c-1.221,0-1.78-0.537-2.555-1.281c-0.852-0.819-1.913-1.839-3.938-1.839c-2.027,0-3.09,1.02-3.942,1.839  c-0.775,0.744-1.335,1.281-2.557,1.281s-1.782-0.537-2.557-1.281c-0.853-0.819-1.914-1.839-3.941-1.839c-0.553,0-1,0.447-1,1  s0.447,1,1,1c1.222,0,1.782,0.537,2.557,1.281c0.853,0.819,1.914,1.839,3.941,1.839c2.026,0,3.089-1.02,3.941-1.839  c0.775-0.744,1.335-1.281,2.558-1.281c1.221,0,1.779,0.537,2.553,1.281c0.853,0.819,1.914,1.839,3.94,1.839s3.088-1.02,3.94-1.839  c0.774-0.744,1.334-1.281,2.556-1.281c1.223,0,1.782,0.537,2.558,1.281c0.853,0.819,1.915,1.839,3.941,1.839  c2.027,0,3.09-1.02,3.942-1.839c0.775-0.744,1.335-1.281,2.557-1.281c1.223,0,1.782,0.537,2.558,1.281  c0.853,0.819,1.915,1.839,3.941,1.839c2.028,0,3.09-1.02,3.943-1.839c0.775-0.744,1.335-1.281,2.558-1.281  c1.222,0,1.782,0.537,2.557,1.281c0.853,0.819,1.914,1.839,3.941,1.839s3.09-1.02,3.943-1.838c0.775-0.744,1.336-1.282,2.56-1.282  c1.225,0,1.786,0.538,2.562,1.282c0.854,0.818,1.917,1.838,3.945,1.838c2.029,0,3.092-1.02,3.946-1.838  c0.775-0.744,1.337-1.282,2.562-1.282c0.553,0,1-0.447,1-1S89.678,54.944,89.125,54.944z"></path><path d="M89.125,62.435c-2.029,0-3.092,1.02-3.946,1.838c-0.775,0.744-1.337,1.282-2.562,1.282s-1.785-0.537-2.561-1.281  c-0.854-0.819-1.917-1.839-3.946-1.839c-2.028,0-3.091,1.02-3.944,1.839c-0.775,0.744-1.335,1.281-2.559,1.281  c-1.222,0-1.782-0.537-2.557-1.281c-0.853-0.819-1.914-1.839-3.941-1.839s-3.089,1.02-3.942,1.839  c-0.775,0.744-1.335,1.281-2.559,1.281c-1.222,0-1.781-0.537-2.557-1.281c-0.853-0.819-1.915-1.839-3.942-1.839  c-2.026,0-3.089,1.02-3.941,1.839c-0.775,0.744-1.335,1.281-2.558,1.281c-1.222,0-1.781-0.537-2.557-1.281  c-0.853-0.819-1.915-1.839-3.942-1.839c-2.026,0-3.088,1.02-3.94,1.839c-0.774,0.744-1.334,1.281-2.556,1.281  c-1.221,0-1.78-0.537-2.555-1.281c-0.852-0.819-1.913-1.839-3.938-1.839c-2.027,0-3.09,1.02-3.942,1.839  c-0.775,0.744-1.335,1.281-2.557,1.281s-1.782-0.537-2.557-1.281c-0.853-0.819-1.914-1.839-3.941-1.839c-0.553,0-1,0.447-1,1  s0.447,1,1,1c1.222,0,1.782,0.537,2.557,1.281c0.853,0.819,1.914,1.839,3.941,1.839c2.026,0,3.089-1.02,3.941-1.839  c0.775-0.744,1.335-1.281,2.558-1.281c1.221,0,1.779,0.537,2.553,1.281c0.853,0.819,1.914,1.839,3.94,1.839s3.088-1.02,3.94-1.839  c0.774-0.744,1.334-1.281,2.556-1.281c1.223,0,1.782,0.537,2.558,1.281c0.853,0.819,1.915,1.839,3.941,1.839  c2.027,0,3.09-1.02,3.942-1.839c0.775-0.744,1.335-1.281,2.557-1.281c1.223,0,1.782,0.537,2.558,1.281  c0.853,0.819,1.915,1.839,3.941,1.839c2.028,0,3.09-1.02,3.943-1.839c0.775-0.744,1.335-1.281,2.558-1.281  c1.222,0,1.782,0.537,2.557,1.281c0.853,0.819,1.914,1.839,3.941,1.839s3.09-1.02,3.943-1.838c0.775-0.744,1.336-1.282,2.56-1.282  c1.225,0,1.786,0.538,2.562,1.282c0.854,0.818,1.917,1.838,3.945,1.838c2.029,0,3.092-1.02,3.946-1.838  c0.775-0.744,1.337-1.282,2.562-1.282c0.553,0,1-0.447,1-1S89.678,62.435,89.125,62.435z"></path><path d="M89.125,69.926c-2.029,0-3.092,1.02-3.946,1.838c-0.775,0.744-1.337,1.282-2.562,1.282s-1.785-0.537-2.561-1.281  c-0.854-0.819-1.917-1.839-3.946-1.839c-2.028,0-3.091,1.02-3.944,1.839c-0.775,0.744-1.335,1.281-2.559,1.281  c-1.222,0-1.782-0.537-2.557-1.281c-0.853-0.819-1.914-1.839-3.941-1.839s-3.089,1.02-3.942,1.839  c-0.775,0.744-1.335,1.281-2.559,1.281c-1.222,0-1.781-0.537-2.557-1.281c-0.853-0.819-1.915-1.839-3.942-1.839  c-2.026,0-3.089,1.02-3.941,1.839c-0.775,0.744-1.335,1.281-2.558,1.281c-1.222,0-1.781-0.537-2.557-1.281  c-0.853-0.819-1.915-1.839-3.942-1.839c-2.026,0-3.088,1.02-3.94,1.839c-0.774,0.744-1.334,1.281-2.556,1.281  c-1.221,0-1.78-0.537-2.555-1.281c-0.852-0.819-1.913-1.839-3.938-1.839c-2.027,0-3.09,1.02-3.942,1.839  c-0.775,0.744-1.335,1.281-2.557,1.281s-1.782-0.537-2.557-1.281c-0.853-0.819-1.914-1.839-3.941-1.839c-0.553,0-1,0.447-1,1  s0.447,1,1,1c1.222,0,1.782,0.537,2.557,1.281c0.853,0.819,1.914,1.839,3.941,1.839c2.026,0,3.089-1.02,3.941-1.839  c0.775-0.744,1.335-1.281,2.558-1.281c1.221,0,1.779,0.537,2.553,1.281c0.853,0.819,1.914,1.839,3.94,1.839s3.088-1.02,3.94-1.839  c0.774-0.744,1.334-1.281,2.556-1.281c1.223,0,1.782,0.537,2.558,1.281c0.853,0.819,1.915,1.839,3.941,1.839  c2.027,0,3.09-1.02,3.942-1.839c0.775-0.744,1.335-1.281,2.557-1.281c1.223,0,1.782,0.537,2.558,1.281  c0.853,0.819,1.915,1.839,3.941,1.839c2.028,0,3.09-1.02,3.943-1.839c0.775-0.744,1.335-1.281,2.558-1.281  c1.222,0,1.782,0.537,2.557,1.281c0.853,0.819,1.914,1.839,3.941,1.839s3.09-1.02,3.943-1.838c0.775-0.744,1.336-1.282,2.56-1.282  c1.225,0,1.786,0.538,2.562,1.282c0.854,0.818,1.917,1.838,3.945,1.838c2.029,0,3.092-1.02,3.946-1.838  c0.775-0.744,1.337-1.282,2.562-1.282c0.553,0,1-0.447,1-1S89.678,69.926,89.125,69.926z"></path><path d="M89.125,77.416c-2.029,0-3.092,1.02-3.946,1.838c-0.775,0.744-1.337,1.282-2.562,1.282s-1.785-0.537-2.561-1.281  c-0.854-0.819-1.917-1.839-3.946-1.839c-2.028,0-3.091,1.02-3.944,1.839c-0.775,0.744-1.335,1.281-2.559,1.281  c-1.222,0-1.782-0.537-2.557-1.281c-0.853-0.819-1.914-1.839-3.941-1.839s-3.089,1.02-3.942,1.839  c-0.775,0.744-1.335,1.281-2.559,1.281c-1.222,0-1.781-0.537-2.557-1.281c-0.853-0.819-1.915-1.839-3.942-1.839  c-2.026,0-3.089,1.02-3.941,1.839c-0.775,0.744-1.335,1.281-2.558,1.281c-1.222,0-1.781-0.537-2.557-1.281  c-0.853-0.819-1.915-1.839-3.942-1.839c-2.026,0-3.088,1.02-3.94,1.839c-0.774,0.744-1.334,1.281-2.556,1.281  c-1.221,0-1.78-0.537-2.555-1.281c-0.852-0.819-1.913-1.839-3.938-1.839c-2.027,0-3.09,1.02-3.942,1.839  c-0.775,0.744-1.335,1.281-2.557,1.281s-1.782-0.537-2.557-1.281c-0.853-0.819-1.914-1.839-3.941-1.839c-0.553,0-1,0.447-1,1  s0.447,1,1,1c1.222,0,1.782,0.537,2.557,1.281c0.853,0.819,1.914,1.839,3.941,1.839c2.026,0,3.089-1.02,3.941-1.839  c0.775-0.744,1.335-1.281,2.558-1.281c1.221,0,1.779,0.537,2.553,1.281c0.853,0.819,1.914,1.839,3.94,1.839s3.088-1.02,3.94-1.839  c0.774-0.744,1.334-1.281,2.556-1.281c1.223,0,1.782,0.537,2.558,1.281c0.853,0.819,1.915,1.839,3.941,1.839  c2.027,0,3.09-1.02,3.942-1.839c0.775-0.744,1.335-1.281,2.557-1.281c1.223,0,1.782,0.537,2.558,1.281  c0.853,0.819,1.915,1.839,3.941,1.839c2.028,0,3.09-1.02,3.943-1.839c0.775-0.744,1.335-1.281,2.558-1.281  c1.222,0,1.782,0.537,2.557,1.281c0.853,0.819,1.914,1.839,3.941,1.839s3.09-1.02,3.943-1.838c0.775-0.744,1.336-1.282,2.56-1.282  c1.225,0,1.786,0.538,2.562,1.282c0.854,0.818,1.917,1.838,3.945,1.838c2.029,0,3.092-1.02,3.946-1.838  c0.775-0.744,1.337-1.282,2.562-1.282c0.553,0,1-0.447,1-1S89.678,77.416,89.125,77.416z"></path><path d="M89.125,84.906c-2.029,0-3.092,1.02-3.946,1.838c-0.775,0.744-1.337,1.282-2.562,1.282s-1.785-0.537-2.561-1.281  c-0.854-0.819-1.917-1.839-3.946-1.839c-2.028,0-3.091,1.02-3.944,1.839c-0.775,0.744-1.335,1.281-2.559,1.281  c-1.222,0-1.782-0.537-2.557-1.281c-0.853-0.819-1.914-1.839-3.941-1.839s-3.089,1.02-3.942,1.839  c-0.775,0.744-1.335,1.281-2.559,1.281c-1.222,0-1.781-0.537-2.557-1.281c-0.853-0.819-1.915-1.839-3.942-1.839  c-2.026,0-3.089,1.02-3.941,1.839c-0.775,0.744-1.335,1.281-2.558,1.281c-1.222,0-1.781-0.537-2.557-1.281  c-0.853-0.819-1.915-1.839-3.942-1.839c-2.026,0-3.088,1.02-3.94,1.839c-0.774,0.744-1.334,1.281-2.556,1.281  c-1.221,0-1.78-0.537-2.555-1.281c-0.852-0.819-1.913-1.839-3.938-1.839c-2.027,0-3.09,1.02-3.942,1.839  c-0.775,0.744-1.335,1.281-2.557,1.281s-1.782-0.537-2.557-1.281c-0.853-0.819-1.914-1.839-3.941-1.839c-0.553,0-1,0.447-1,1  s0.447,1,1,1c1.222,0,1.782,0.537,2.557,1.281c0.853,0.819,1.914,1.839,3.941,1.839c2.026,0,3.089-1.02,3.941-1.839  c0.775-0.744,1.335-1.281,2.558-1.281c1.221,0,1.779,0.537,2.553,1.281c0.853,0.819,1.914,1.839,3.94,1.839s3.088-1.02,3.94-1.839  c0.774-0.744,1.334-1.281,2.556-1.281c1.223,0,1.782,0.537,2.558,1.281c0.853,0.819,1.915,1.839,3.941,1.839  c2.027,0,3.09-1.02,3.942-1.839c0.775-0.744,1.335-1.281,2.557-1.281c1.223,0,1.782,0.537,2.558,1.281  c0.853,0.819,1.915,1.839,3.941,1.839c2.028,0,3.09-1.02,3.943-1.839c0.775-0.744,1.335-1.281,2.558-1.281  c1.222,0,1.782,0.537,2.557,1.281c0.853,0.819,1.914,1.839,3.941,1.839s3.09-1.02,3.943-1.838c0.775-0.744,1.336-1.282,2.56-1.282  c1.225,0,1.786,0.538,2.562,1.282c0.854,0.818,1.917,1.838,3.945,1.838c2.029,0,3.092-1.02,3.946-1.838  c0.775-0.744,1.337-1.282,2.562-1.282c0.553,0,1-0.447,1-1S89.678,84.906,89.125,84.906z"></path></svg>